<?xml version="1.0" encoding="UTF-8"?>
<svg id="_이름박스" data-name="이름박스" xmlns="http://www.w3.org/2000/svg" xmlns:xlink="http://www.w3.org/1999/xlink" viewBox="0 0 1024 1024">
  <defs>
    <linearGradient id="_무제_그라디언트_60" x1="23.71" y1="793.91" x2="1000.29" y2="230.09" gradientUnits="userSpaceOnUse">
      <stop offset="0" stop-color="#b3b3b3"/>
      <stop offset=".23" stop-color="#f2f2f2"/>
      <stop offset=".4" stop-color="#c5c5c5"/>
      <stop offset=".49" stop-color="#b3b3b3"/>
      <stop offset=".58" stop-color="#cbcbcb"/>
      <stop offset=".72" stop-color="#e7e7e7"/>
      <stop offset=".79" stop-color="#f2f2f2"/>
      <stop offset=".86" stop-color="#efefef"/>
      <stop offset=".9" stop-color="#e5e5e5"/>
      <stop offset=".94" stop-color="#d5d5d5"/>
      <stop offset=".98" stop-color="#bfbfbf"/>
      <stop offset="1" stop-color="#b3b3b3"/>
    </linearGradient>
  </defs>
  <path d="M258.47,1024h507.06c97.46,0,176.47-79.01,176.47-176.47v-105.83H82v105.83c0,97.46,79.01,176.47,176.47,176.47Z" fill="#ff7210"/>
  <path d="M266.99,1024h490.01c94.18,0,170.53-79.01,170.53-176.47v-105.83H96.46v105.83c0,97.46,76.35,176.47,170.53,176.47Z" fill="#003893"/>
  <path id="_무소속" d="M258.47,996.16h507.06c39.12,0,75.9-15.24,103.57-42.9,27.66-27.66,42.9-64.45,42.9-103.57v-108.13H112v108.13c0,39.12,15.24,75.9,42.9,103.57,27.66,27.66,64.45,42.9,103.57,42.9Z" fill="#e61e2b"/>
  <path d="M765.53,0s-507.06,0-507.06,0C161.01,0,82,79.01,82,176.47c0,0,0,671.06,0,671.06,0,10.66.95,21.1,2.76,31.24,5.51,31.08,19.61,60.45,40.28,84.25,33.27,38.13,80.27,60.8,133.44,60.98,0,0,507.06,0,507.06,0,45.72-.08,86.92-17.1,118.65-45.84,28.61-25.9,48.35-61.33,55.06-99.39,1.81-10.14,2.76-20.58,2.76-31.24,0,0,0-671.06,0-671.06C942,79.01,862.99,0,765.53,0ZM902,821.32c0,89.85-71.66,162.68-160.05,162.68h-459.89c-88.39,0-160.05-72.83-160.05-162.68V202.68c0-89.85,71.66-162.68,160.05-162.68h459.89c88.39,0,160.05,72.84,160.05,162.68v618.64Z" fill="url(#_무제_그라디언트_60)"/>
  <g opacity=".3">
    <path d="M741.95,40c88.39,0,160.05,72.84,160.05,162.68v618.64c0,89.85-71.66,162.68-160.05,162.68h-459.89c-88.39,0-160.05-72.84-160.05-162.68V202.68c0-89.85,71.66-162.68,160.05-162.68h459.89M741.95,30h-459.89c-22.97,0-45.26,4.57-66.25,13.6-20.26,8.71-38.44,21.17-54.05,37.04-15.6,15.86-27.85,34.32-36.4,54.88-8.86,21.28-13.35,43.88-13.35,67.17v618.64c0,23.29,4.49,45.89,13.35,67.17,8.56,20.56,20.8,39.02,36.4,54.88,15.61,15.87,33.8,28.33,54.05,37.04,20.99,9.02,43.28,13.6,66.25,13.6h459.89c22.97,0,45.26-4.57,66.25-13.6,20.26-8.71,38.44-21.17,54.05-37.04,15.6-15.86,27.85-34.32,36.4-54.88,8.86-21.28,13.35-43.88,13.35-67.17V202.68c0-23.29-4.49-45.89-13.35-67.17-8.56-20.56-20.8-39.02-36.4-54.88-15.61-15.87-33.8-28.33-54.05-37.04-20.99-9.02-43.28-13.6-66.25-13.6h0Z" fill="#fff"/>
  </g>
</svg>