<?xml version="1.0" encoding="UTF-8"?>
<svg id="_카드" data-name="카드" xmlns="http://www.w3.org/2000/svg" viewBox="0 0 1024 1024">
  <g id="_카드배경">
    <g>
      <rect x="90.26" y="8.88" width="845.44" height="1006.67" rx="173.51" ry="173.51" fill="#666"/>
      <g opacity=".1">
        <polygon points="929.42 380.88 929.42 402.8 942 402.8 929.42 380.88" fill="#fff"/>
        <polygon points="475.63 133.54 475.73 133.74 547.89 8.88 403.37 8.88 475.43 133.74 475.63 133.54" fill="#fff"/>
        <path d="M929.42,842.04v-169.97h-142.84l132.42,229.25c6.68-18.48,10.42-38.54,10.42-59.38h0v.1Z" fill="#fff"/>
        <polygon points="631.05 941.43 786.58 672.07 475.63 672.07 631.05 941.43" fill="#fff"/>
        <polygon points="83.97 402.8 83.97 532.27 164.68 672.07 320.11 402.8 83.97 402.8" fill="#fff"/>
        <polygon points="786.58 672.07 929.42 424.72 929.42 402.8 631.05 402.8 786.58 672.07" fill="#fff"/>
        <polygon points="475.92 134.03 631.05 402.8 786.28 134.03 475.92 134.03" fill="#fff"/>
        <polygon points="164.98 134.03 320.11 402.8 475.33 134.03 164.98 134.03" fill="#fff"/>
        <path d="M164.78,133.74L236.15,10.16C96.87,30.8,74.23,152.55,83.97,273.33l80.71-139.79v.2h.1Z" fill="#fff"/>
        <path d="M922.54,134.03h-135.66l142.55,246.85c-2.2-36.92,6.12-214.74-6.88-246.85h0Z" fill="#fff"/>
        <path d="M755.9,1015.55c58.89,0,110.89-29.3,142.25-74.12h-267l42.76,74.12h81.99Z" fill="#fff"/>
        <polygon points="362.97 1015.55 588.29 1015.55 631.05 941.43 320.11 941.43 362.97 1015.55" fill="#fff"/>
        <path d="M257.39,1015.55h19.96l42.76-74.12H115.14c31.36,44.83,83.36,74.12,142.25,74.12Z" fill="#fff"/>
        <path d="M786.58,133.54v.2c.1,0,58.1-100.47,58.1-100.47-36.09-24.03-86.94-26.03-130.36-24.38l72.06,124.85v-.2h.2Z" fill="#fff"/>
        <polygon points="83.97 811.96 164.68 672.07 83.97 672.07 83.97 811.96" fill="#fff"/>
        <polygon points="164.68 672.07 320.11 941.43 475.63 672.07 164.68 672.07" fill="#fff"/>
        <polygon points="631.05 402.8 320.11 402.8 475.63 672.07 631.05 402.8" fill="#fff"/>
      </g>
    </g>
  </g>
</svg>