<?xml version="1.0" encoding="UTF-8"?>
<svg id="_카드" data-name="카드" xmlns="http://www.w3.org/2000/svg" viewBox="0 0 1024 1024">
  <g id="_카드배경">
    <g>
      <path d="M266.99,18.38c-94.18,0-170.53,76.35-170.53,170.53v615.81L550.45,18.38h-283.46Z" fill="#d9081f"/>
      <path d="M927.54,837.41v-101.95l-157.01,271.95c87.86-6.89,157.01-80.37,157.01-170Z" fill="#d9081f"/>
      <path d="M97.56,856.76c9.61,85.07,81.8,151.18,169.43,151.18h92.42l-87.44-50.48-174.41-100.7Z" fill="#d9081f"/>
      <path d="M506.52,1007.95h250.48c4.55,0,9.06-.18,13.53-.53l157.01-271.95v-456.74l-421.01,729.22Z" fill="#f4a4bd"/>
      <path d="M927.54,278.73v-89.81c0-75.9-49.59-140.21-118.13-162.32L271.97,957.46l87.44,50.48h147.11l421.01-729.22Z" fill="#207379"/>
      <path d="M809.41,26.6c-16.51-5.33-34.12-8.22-52.4-8.22h-206.55L96.46,804.72v32.69c0,6.55.38,13,1.1,19.35l174.41,100.7L809.41,26.6Z" fill="#213d69"/>
    </g>
  </g>
</svg>