<?xml version="1.0" encoding="UTF-8"?>
<svg id="_레이어_28" data-name="레이어 28" xmlns="http://www.w3.org/2000/svg" xmlns:xlink="http://www.w3.org/1999/xlink" viewBox="0 0 1024 1024">
  <defs>
    <clipPath id="clippath">
      <rect y="-23.22" width="1024" height="1047.22" fill="none"/>
    </clipPath>
  </defs>
  <g clip-path="url(#clippath)">
    <g>
      <path d="M1024,1196.15V-1.04h-341.33v1059.65c130.4,22.8,247.55,71.13,341.33,137.53Z" fill="#07275e"/>
      <path d="M512,1043.94c58.74,0,115.87,5.09,170.67,14.67V-1.04h-341.33v1059.65c54.8-9.58,111.93-14.67,170.67-14.67Z" fill="#006cb6"/>
      <path d="M341.33,1058.61V-1.04H0v1197.18c93.78-66.4,210.93-114.73,341.33-137.53Z" fill="#003893"/>
    </g>
  </g>
  <g>
    <g>
      <polygon points="235.75 523.59 235.75 546.58 189.69 546.58 189.69 566.44 302.49 566.44 302.49 546.58 256.43 546.58 256.43 523.59 235.75 523.59" fill="#fff"/>
      <path d="M255.83,485.83c1.21-3.12,2.12-5.8,2.78-8.86h38.04v-19.31h-101.12v19.31h40.9c-5.87,17.37-22.7,29.02-42.89,29.81v19.46c20.21-.39,39.11-8.92,51.94-23.48l46.29,24.14,9.31-17.05-45.56-23.21.31-.8Z" fill="#fff"/>
    </g>
    <g>
      <polygon points="426.4 516.75 426.4 498.96 313.6 498.96 313.6 516.75 359.66 516.75 359.66 531.8 315.84 531.8 315.84 549.46 396.89 549.46 396.89 570.6 420.87 570.6 420.87 531.8 380.33 531.8 380.33 516.75 426.4 516.75" fill="#fff"/>
      <polygon points="419.23 493.26 419.23 456.75 318.3 456.75 318.3 474.68 396.36 474.68 396.36 493.26 419.23 493.26" fill="#fff"/>
    </g>
    <g>
      <path d="M632.12,502.47l.56-.79,29.52,22.2,12.24-15.03-33.17-23.78c3.04-8.33,4.69-17.43,4.8-26.44l-21.22-1.27c-.72,26.19-13.53,45.99-31.49,48.69v19.78c14.97-1.07,28.7-9.34,38.76-23.36Z" fill="#fff"/>
      <rect x="681.1" y="456.75" width="21.07" height="77.7" fill="#fff"/>
      <polygon points="600.28 533.15 600.28 572.42 703.8 572.42 703.8 555.24 621.76 555.24 621.76 533.15 600.28 533.15" fill="#fff"/>
    </g>
    <g>
      <path d="M771.93,573.79c66.84,3.54,66.83-54.24,0-50.69-66.84-3.54-66.82,54.23,0,50.69ZM771.93,539.79c32.84-2.06,41.03,18.07,0,17.31-41.03.77-32.84-19.37,0-17.31Z" fill="#fff"/>
      <polygon points="800.49 456.75 800.49 519.56 821.03 519.56 821.03 496.98 834.31 496.98 834.31 476.3 821.03 476.3 821.03 456.75 800.49 456.75" fill="#fff"/>
      <path d="M718.99,514.88c16.28-.71,60.66,2.43,74.31-3.81v-16.72c-11.5,4.77-39.92,3.19-53.76,3.42v-22.4h47.26v-17.24h-67.8v56.75Z" fill="#fff"/>
    </g>
    <g>
      <polygon points="576.89 587.38 576.89 533.56 450.62 533.56 450.62 555.15 549.34 555.15 549.34 587.38 576.89 587.38" fill="#e2e4e5"/>
      <polygon points="577.5 525.84 577.5 438.17 550.26 438.17 550.26 456.79 530.49 456.79 530.49 477.74 550.26 477.74 550.26 490.8 530.49 490.8 530.49 511.75 550.26 511.75 550.26 525.84 577.5 525.84" fill="#e2e4e5"/>
      <path d="M438.2,469.32h9.13c-3.91,6.25-2.91,16.52-3,23.62,0,19.9,14.21,32.26,37.07,32.26s36.92-12.06,36.92-32.26c-.15-6.99.92-17.66-2.85-23.62h9.29v-19.33h-29.89v-12.8h-26.93v12.8h-29.74v19.33ZM468.35,480.79c-1.27-16.5,27.39-16.5,26.11,0,0,0,0,10.85,0,10.85,1.08,16.69-27.69,17.21-26.11,0,0,0,0-10.85,0-10.85Z" fill="#e2e4e5"/>
    </g>
  </g>
</svg>