<?xml version="1.0" encoding="UTF-8"?>
<svg id="_기본소득당" data-name="기본소득당" xmlns="http://www.w3.org/2000/svg" viewBox="0 0 1024 1024">
  <rect width="1024" height="1024" fill="#00d2c3"/>
  <g>
    <g>
      <polygon points="390.7 312.9 390.7 509.12 421.47 505.34 421.47 309.13 390.7 312.9" fill="#001838"/>
      <path d="M362.04,368.51c-1.1-12.24,4.32-31.91-5.45-42.07-6.79-5.83-13.73-4.66-23.31-3.47l-95.88,12.2,12.05,26.82,81.01-9.95s2.23,30.69-1.72,37.45c-15.24,26.05-89.3,111.61-89.3,111.61l23.38,15.08s74-82.75,94.16-118.29c3.88-6.83,4.94-15.32,5.06-29.37Z" fill="#001838"/>
    </g>
    <g>
      <path d="M557.72,397.68v-16.04c94.49-10.14,66.3-4.1,70.73-94.43l-30.77,3.78v19.84l-105.68,13.33,11.38,22.88,94.3-11.58v16.43l-110.21,13.53v-60.89l-30.77,3.78c4.34,89.69-23.15,90.02,70.39,77.1v16.04l-81.25,9.98v24.91l193.64-23.78v-24.91l-81.76,10.04Z" fill="#001838"/>
      <path d="M486.9,440.07l-32.94,4.05v41.26c0,7.08,7.13,14.12,16.66,12.94l160.76-19.74v-28.98l-144.48,17.74v-27.26Z" fill="#001838"/>
    </g>
    <g>
      <path d="M454.82,655.94v27.93l144.92-17.79v38.35l31.51-3.81.17-46.78c0-18.4-11.77-18.13-19.69-17.16l-156.91,19.27Z" fill="#001838"/>
      <polygon points="445.85 618.27 445.85 643.18 639.48 619.41 639.48 594.5 445.85 618.27" fill="#001838"/>
      <path d="M469.73,601.48l160.78-20.13v-26.17l-145.75,18.47v-23.26l132.43-16.44,11.5-27.52-158.96,19.52c-8.78,1.08-14.91,7.38-14.91,15.33v48.55c0,7.94,6.13,12.74,14.91,11.66Z" fill="#001838"/>
    </g>
    <g>
      <path d="M687.77,444.25v-38.26l86.88-10.89,12.64-28.47c-145.15,23.79-131.59-13.3-131.21,93.19,2.6,23.08,34.47,8.87,56.35,8.35,35.54-4.37,69.8-8.63,73.84-9.13v-27.04l-98.5,12.25Z" fill="#001838"/>
      <polygon points="831.63 393.52 831.83 356.76 800.78 360.48 800.41 463.92 831.38 460.12 831.5 424.3 856.64 421.22 856.64 390.44 831.63 393.52" fill="#001838"/>
    </g>
    <g>
      <polygon points="345.56 670.42 345.56 607.52 313.32 611.48 313.32 674.38 231.92 684.37 231.92 713.9 426.96 689.95 426.96 660.43 345.56 670.42" fill="#001838"/>
      <g>
        <polygon points="407.44 628.44 426.94 597.7 354.56 520.59 336.59 552.97 407.44 628.44" fill="#001838"/>
        <path d="M251.77,648.7l-19.88-25.27,80.06-104.53c10.63-14.51,28.38-14.57,39.8-1.57l-99.98,131.37Z" fill="#001838"/>
      </g>
    </g>
    <g>
      <path d="M750.04,482.34c-108.82,12.29-112.61,187.96,10.4,164.38l-.57.72-10.16,28.98s83.48-51.66,83.48-120.99c0-45.92-37.23-78.72-83.15-73.08ZM805.35,559.49c0,40.81-40.47,73.55-40.47,73.55l6.75-19.26c-32.9,19.62-78.07-1.41-76.91-41.5-1.83-68.04,108.8-90.03,110.63-12.79Z" fill="#001838"/>
      <path d="M833.19,555.43s0-.05,0,0h0Z" fill="#001838"/>
    </g>
  </g>
</svg>