<?xml version="1.0" encoding="UTF-8"?>
<svg id="_입법예고보러가기" data-name="입법예고보러가기" xmlns="http://www.w3.org/2000/svg" viewBox="0 0 1024 1024">
  <circle cx="673.45" cy="492.67" r="212.84" fill="#9697f1"/>
  <circle cx="351.35" cy="492.67" r="212.84" fill="#9697f1"/>
  <path d="M511.01,406.27l12.77-20.71c74.61-105.88,233.59-103.19,303.24,7.2,66.43,105.28,10.57,242.76-109.2,272.85-80.14,20.13-168.09-19.9-204.84-93.32-5.79,7.27-9.76,15.76-15.17,23.31-73.14,102.06-226.08,99.76-296.63-4-90.65-133.32,22.31-306.94,180-281,55.33,9.1,104.85,45.68,129.83,95.68ZM816.04,489.06c0-78.75-63.84-142.58-142.58-142.58s-142.58,63.84-142.58,142.58,63.84,142.58,142.58,142.58,142.58-63.84,142.58-142.58ZM492.48,489.27c0-78.56-63.69-142.24-142.24-142.24s-142.24,63.69-142.24,142.24,63.69,142.24,142.24,142.24,142.24-63.69,142.24-142.24Z" fill="#9697f1"/>
  <path d="M816.04,489.06c0,78.75-63.84,142.58-142.58,142.58s-142.58-63.84-142.58-142.58,63.84-142.58,142.58-142.58,142.58,63.84,142.58,142.58ZM784.23,487.51c0-31.81-25.79-57.61-57.61-57.61s-57.61,25.79-57.61,57.61,25.79,57.61,57.61,57.61,57.61-25.79,57.61-57.61Z" fill="#fff"/>
  <circle cx="726.63" cy="487.51" r="57.61"/>
  <path d="M492.48,489.27c0,78.56-63.69,142.24-142.24,142.24s-142.24-63.69-142.24-142.24,63.69-142.24,142.24-142.24,142.24,63.69,142.24,142.24ZM466.69,488.48c0-31.85-25.82-57.67-57.67-57.67s-57.67,25.82-57.67,57.67,25.82,57.67,57.67,57.67,57.67-25.82,57.67-57.67Z" fill="#fff"/>
  <circle cx="409.02" cy="488.48" r="57.67"/>
</svg>