<?xml version="1.0" encoding="UTF-8"?>
<svg id="_정무위" data-name="정무위" xmlns="http://www.w3.org/2000/svg" viewBox="0 0 1024 1024">
  <path d="M853.58,316.17H170.42c-10.17,0-18.42,10.5-18.42,23.46v385.62c0,12.96,8.25,23.46,18.42,23.46h282.97c7.06,0,13.61,5.08,16.57,13.25,11.73,32.34,72.36,32.34,84.09,0,2.96-8.17,9.51-13.26,16.57-13.26h282.97c10.17,0,18.42-10.5,18.42-23.46v-385.62c0-12.96-8.25-23.46-18.42-23.46Z" fill="#96b5f2"/>
  <path d="M363.53,680.23c61.53,2.47,135.04,28.11,150.49,28.82v-440.85c-41.59-22.98-206.82-49.34-290.69-6.18-8.56,3.46-13.88,10.35-13.88,17.82v396.9c0,9.75,12.23,16.63,24.29,13.75,34.31-8.22,79.91-12.25,129.79-10.25Z" fill="#f2f2f2"/>
  <path d="M662.52,680.23c-61.53,2.47-130.63,28.11-150.49,28.82v-440.85s69.5-30.43,165.57-30.43c56.03,2.4,138.2,11.63,139,49.84,0,0,0,379.27,0,379.27,0,14.22-17.35,24.78-35.17,21.2-32.81-6.59-74.13-9.66-118.91-7.86Z" fill="#f2f2f2"/>
</svg>