<?xml version="1.0" encoding="UTF-8"?>
<svg id="_환경노동" data-name="환경노동" xmlns="http://www.w3.org/2000/svg" viewBox="0 0 1024 1024">
  <path d="M147.71,685.37v1.02c0-.34.01-.68.04-1.02h-.04Z" fill="#fa8646"/>
  <g>
    <rect x="311.4" y="172.35" width="128" height="339.81" rx="27.53" ry="27.53" transform="translate(-132.06 365.69) rotate(-45)" fill="#fa8646"/>
    <rect x="484.24" y="272.53" width="339.81" height="128" rx="27.53" ry="27.53" transform="translate(-46.37 561.12) rotate(-45)" fill="#fa8646"/>
    <path d="M867.67,685.37c.02.34.04.68.04,1.02v-1.02h-.04Z" fill="#fa8646"/>
    <path d="M513.75,500.16c-198.82,0-360,80.85-360,120.4v-128.04c0-39.55,161.18-120.4,360-120.4s360,80.85,360,120.4v128.04c0-39.55-161.18-120.4-360-120.4Z" fill="#fad446"/>
    <path d="M512.72,642.76c-198.82,0-358.98-106.97-358.98-146.52v128.04c0,39.55,160.15,146.52,358.98,146.52s361.02-106.97,361.02-146.52v-128.04c0,39.55-162.2,146.52-361.02,146.52Z" fill="#fa8646"/>
  </g>
</svg>