<?xml version="1.0" encoding="UTF-8"?>
<svg id="_기획재정" data-name="기획재정" xmlns="http://www.w3.org/2000/svg" viewBox="0 0 1024 1024">
  <path d="M488.06,213.08c-47.47,31.78-83.15,24.91-111.82,27.38-25.16,2.17-33.31,36.37-15.78,54.55,12.24,10.76,28.42,36.58,47.35,34.68,0,0,208.38,0,208.38,0,8.88,0,17.39-3.61,23.56-10.01l23.79-24.67c17.53-18.18,9.34-51.9-15.78-54.55-88.51,3.39-120.48-51.3-159.69-27.38Z" fill="#faa546"/>
  <ellipse cx="512" cy="402.86" rx="182.98" ry="134.62" fill="#fad446"/>
  <path d="M816.94,631.13c-.05-168.47-136.56-305.02-304.94-305.02s-304.89,136.56-304.94,305.02h-.06c0,102.65,83.17,185.87,185.76,185.87h238.47c102.59,0,185.76-83.22,185.76-185.87h-.06Z" fill="#faa546"/>
  <path d="M660.13,547.07s.07,0-23.89,0c8.09-22.24,14.15-38.89,14.15-38.89,5.37-14.76-2.24-31.08-16.99-36.45-43.49-9.82-39.46,38.05-65.63,97.27-22.54-52.31-23.94-99.64-55.78-98.99-31.82-.68-33.25,46.69-55.78,98.99-26.2-59.27-22.09-107.05-65.63-97.27-14.75,5.37-22.36,21.69-16.99,36.45,0,0,6.06,16.66,14.15,38.89-23.96,0-23.89,0-23.89,0-37.16.16-37.18,56.71,0,56.88,0,0-.11,0,44.46,0v-.33c10.27,28.23,19.06,52.41,20.04,55.08,2.05,9.14,8.56,17.09,18.01,20.53,41.93,12.08,41.81-43.13,65.63-97.27,22.55,52.33,23.94,99.64,55.78,98.99,13.08.34,25.44-9.87,27.86-22.25.97-2.67,9.77-26.85,20.04-55.08v.33c44.57,0,44.46,0,44.46,0,37.18-.17,37.16-56.71,0-56.88Z" fill="#f2f2f2"/>
</svg>