<?xml version="1.0" encoding="UTF-8"?>
<svg id="_행정안전" data-name="행정안전" xmlns="http://www.w3.org/2000/svg" viewBox="0 0 1024 1024">
  <rect x="375.08" y="265.5" width="273.48" height="542.95" fill="#f2f2f2"/>
  <rect x="285.08" y="408.9" width="90" height="413.82" fill="#96b5f2"/>
  <rect x="648.57" y="411.13" width="90" height="413.82" fill="#96b5f2"/>
  <rect x="466.56" y="411.13" width="90.87" height="413.82" fill="#96b5f2"/>
  <path d="M725.64,872.45h-427.27c-55.56-.91-55.78-83.77,0-84.73,0,0,427.27,0,427.27,0,55.56.91,55.78,83.77,0,84.73Z" fill="#9697f1"/>
  <path d="M375.26,232.81v195.39h90.6c3.72-40.03-18.82-126.05,45.96-127.19,64.75,1.06,42.26,87.33,45.96,127.19h90.6v-195.39h-273.14Z" fill="#96b5f2"/>
  <path d="M725.64,488.49h-427.27c-55.56-.91-55.78-83.77,0-84.73,0,0,427.27,0,427.27,0,55.56.91,55.78,83.77,0,84.73Z" fill="#9697f1"/>
  <path d="M487.2,162.27l-152.43,76.44c-13.34,6.69-8.58,26.79,6.34,26.79h343.82c14.92,0,19.68-20.1,6.34-26.79l-152.43-76.44c-16.25-8.15-35.39-8.15-51.64,0Z" fill="#9697f1"/>
</svg>