<?xml version="1.0" encoding="UTF-8"?>
<svg id="_국방위" data-name="국방위" xmlns="http://www.w3.org/2000/svg" viewBox="0 0 1024 1024">
  <path d="M682.93,742.27h-341.01c-110.07-2.06-110.23-184.34,0-186.43,0,0,341.01,0,341.01,0,46.29,0,83.81,41.73,83.81,93.21,0,51.48-37.52,93.21-83.81,93.21Z" fill="#666"/>
  <rect x="331.32" y="407.99" width="192.66" height="75" fill="#a3c27c"/>
  <path d="M523.02,414.42h-175.32c-79.72-1.5-79.81-133.49,0-135,0,0,175.32,0,175.32,0,79.72,1.5,79.81,133.49,0,135Z" fill="#85c27c"/>
  <path d="M793.83,340.2l-271.66,43.24c-36.26,5.61-44.31-55.82-7.95-61.79,0,0,271.65-43.24,271.65-43.24,36.26-5.61,44.31,55.82,7.95,61.79Z" fill="#85c27c"/>
  <path d="M754.22,656.56h-483.58c-110.02-2.04-110.27-184.34,0-186.43,0,0,483.58,0,483.58,0,46.29,0,83.81,41.73,83.81,93.21,0,51.48-37.52,93.21-83.81,93.21Z" fill="#85c27c"/>
</svg>