<?xml version="1.0" encoding="UTF-8"?>
<svg id="_교육" data-name="교육" xmlns="http://www.w3.org/2000/svg" viewBox="0 0 1024 1024">
  <path d="M796.2,768H227.8c-42.9,0-77.67-28.31-77.67-63.24v-385.53c0-34.93,34.77-63.24,77.67-63.24h568.4c42.9,0,77.67,28.31,77.67,63.24v385.53c0,34.93-34.77,63.24-77.67,63.24Z" fill="#f9be46"/>
  <rect x="224" y="320" width="576" height="384" rx="41.76" ry="41.76" fill="#a3c27c"/>
  <path d="M735.1,731.62h-155.81c-44.32-.15-44.4-55.08,0-55.24,0,0,155.8,0,155.8,0,18.74,0,33.93,12.37,33.93,27.62,0,15.25-15.19,27.62-33.93,27.62Z" fill="#f2f2f2"/>
</svg>