<?xml version="1.0" encoding="UTF-8"?>
<svg id="_문화체육" data-name="문화체육" xmlns="http://www.w3.org/2000/svg" viewBox="0 0 1024 1024">
  <circle cx="512" cy="512" r="305" fill="#96b5f2"/>
  <path d="M488.36,383.86c-135.96,100.22-122.58,59.15-71.51,220.09,5.33,16.43,20.64,27.55,37.92,27.55h114.06c17.27,0,32.58-11.12,37.92-27.55l35.25-108.48c5.34-16.43-.51-34.42-14.48-44.58l-92.27-67.04c-13.97-10.15-32.9-10.15-46.87,0Z" fill="#666"/>
  <path d="M512,207.05c-25.31,0-49.89,3.09-73.4,8.9,75.98,72.13,70.99,71.88,146.81,0-23.51-5.81-48.1-8.9-73.4-8.9Z" fill="#666"/>
  <path d="M251.73,673.38c35.05,55.63,87.57,99.14,149.86,122.83-27.13-150.34-3.31-115.1-149.86-122.83Z" fill="#666"/>
  <path d="M296.64,420.49l-28.99-90.99c-38.86,51.8-61.62,117.14-60.62,186.7l77.65-58.28c11.54-8.66,16.34-23.68,11.96-37.42Z" fill="#666"/>
  <path d="M770.24,674.4c-147.04,7.62-122.66-27.13-149.86,122.83,62.3-23.69,114.82-67.2,149.86-122.83Z" fill="#666"/>
  <path d="M756.35,329.5c-42.99,136.21-51.55,100.78,60.62,186.7,1.01-69.56-21.75-134.89-60.62-186.7Z" fill="#666"/>
</svg>