<?xml version="1.0" encoding="UTF-8"?>
<svg id="_과학정보통신" data-name="과학정보통신" xmlns="http://www.w3.org/2000/svg" viewBox="0 0 1024 1024">
  <path d="M836.66,541.85c-.44-84.89,11.97-90.63-80.42-87.54-11.82,0-22.38-7.45-26.29-18.61-5.98-18-21.96-38.93-4.44-55.55,15.37-19.04,65.01-47.77,37.15-76.6-60.14-59.3-55.35-72.94-118.78-5.02-8.38,8.38-21.14,10.55-31.82,5.4-16.82-8.45-43.02-12.06-42.34-36.14,3.09-91.88-2.43-80.17-87.55-80.41-15.4,0-27.89,12.49-27.89,27.89,0,0,0,52.53,0,52.53,0,11.82-7.45,22.38-18.61,26.29-18,5.98-38.93,21.96-55.55,4.44-62.79-67.15-58.4-55.01-118.78,5.03-27.75,28.81,21.44,57.26,37.16,76.6,17.56,16.66,1.53,37.53-4.45,55.55-3.91,11.16-14.47,18.61-26.29,18.61-91.94-3.08-80.14,2.44-80.41,87.55,3.4,56.74,91.07,2.23,106.71,46.5,2.85,8.13,6.14,16.05,9.85,23.73,5.15,10.68,2.98,23.44-5.4,31.82,0,0-37.16,37.16-37.16,37.16-10.89,10.89-10.89,28.55,0,39.44,0,0,42.18,42.18,42.18,42.18,42.55,37.73,66.01-62.93,108.42-42.56,7.68,3.71,15.6,7,23.73,9.85,11.16,3.91,18.61,14.47,18.61,26.29,2.59,24.44-12.18,79.7,27.89,80.41,84.41-.57,90.73,12.4,87.54-80.42-.7-24.12,25.52-27.68,42.34-36.14,10.68-5.15,23.44-2.98,31.82,5.4,0,0,37.16,37.16,37.16,37.16,10.89,10.89,28.55,10.89,39.44,0l42.18-42.18c37.26-43.68-62.62-65.12-42.56-108.42,8.45-16.82,12.06-43.02,36.14-42.34,24.33-2.6,79.73,12.18,80.41-27.89ZM512.01,627.45c-151.73-2.59-151.71-228.3,0-230.87,151.73,2.59,151.71,228.3,0,230.87Z" fill="#96b5f2"/>
</svg>