<?xml version="1.0" encoding="UTF-8"?>
<svg id="_농림축산해양" data-name="농림축산해양" xmlns="http://www.w3.org/2000/svg" viewBox="0 0 1024 1024">
  <path d="M207.49,518.06h609.02c-2.96-397.02-606.15-396.78-609.02,0Z" fill="#f2f2f2"/>
  <path d="M676.02,793.47h-328.03c-10.09,0-18.27-8.18-18.27-18.27v-76.98h364.58v76.98c0,10.09-8.18,18.27-18.27,18.27Z" fill="#f9be46"/>
  <rect x="647.26" y="151.34" width="64.53" height="311.75" rx="32.27" ry="32.27" transform="translate(244.65 -298.6) rotate(30)" fill="#fa8646"/>
  <path d="M834.02,364.03H189.98c-16.13,0-28.88,13.77-27.53,29.84,9.87,116.91,74.27,234.3,166.98,304.35h365.13c92.71-70.05,157.11-187.43,166.98-304.35,1.36-16.07-11.4-29.84-27.53-29.84Z" fill="#faa546"/>
</svg>