<?xml version="1.0" encoding="UTF-8"?>
<svg id="_국토교통" data-name="국토교통" xmlns="http://www.w3.org/2000/svg" viewBox="0 0 1024 1024">
  <path d="M820.11,768.6H203.82c-26.09,0-45.02-17.68-38.13-35.6l175.74-456.95c4.71-12.24,20.32-20.72,38.13-20.72h263.97c17.79,0,33.39,8.47,38.12,20.69l176.58,456.95c6.93,17.93-12.01,35.64-38.12,35.64Z" fill="#666"/>
  <path d="M462.88,563.33h98.24c3.11,0,5.91-.93,8.39-3.09,2.49-2.17,3.73-4.95,3.42-8.05v-1.55l-9.64-128.41c-.31-3.4-1.87-6.5-4.35-8.97-2.8-2.48-5.91-3.71-9.33-3.71h-74.92c-3.42,0-6.53,1.24-9.33,3.71-2.8,2.48-4.04,5.57-4.35,8.97l-9.64,128.41v1.55c-.31,3.09.93,5.88,3.11,8.05,2.49,2.17,5.29,3.09,8.39,3.09Z" fill="#fad446"/>
  <path d="M588.19,768.6c.03-.68.03-1.37-.02-2.08l-8.08-112.01c-.31-3.71-1.87-7.08-4.35-9.78-2.8-2.7-5.91-4.05-9.33-4.05h-109.74c-3.42,0-6.53,1.35-9.33,4.05-2.8,2.7-4.04,6.07-4.35,9.78l-8.08,112.01c-.06.71-.05,1.4,0,2.08h153.29Z" fill="#fad446"/>
  <path d="M550.55,260.15c-.14-1.69-.56-3.3-1.19-4.82h-76.07c-.59,1.52-.94,3.13-1.08,4.82l-5.91,83.62c-.31,4.03.93,7.39,3.11,10.07,2.49,2.69,5.29,4.03,8.7,4.03h66.84c3.42,0,6.53-1.34,8.7-4.03,2.49-2.69,3.42-6.04,3.11-10.07l-6.22-83.62Z" fill="#fad446"/>
</svg>