<?xml version="1.0" encoding="UTF-8"?>
<svg id="_정보" data-name="정보" xmlns="http://www.w3.org/2000/svg" viewBox="0 0 1024 1024">
  <circle cx="512" cy="512" r="305" fill="#96b5f2"/>
  <g>
    <polygon points="576.36 550.33 768 512 576.35 473.71 628.49 395.51 550.33 447.64 512 256 473.71 447.65 395.51 395.51 447.64 473.67 256 512 447.65 550.29 395.51 628.49 473.67 576.36 512 768 550.29 576.35 628.49 628.49 576.36 550.33" fill="#fad446"/>
    <g>
      <polygon points="512 512 512 256 469.37 469.37 512 512" fill="#fa8646"/>
      <polygon points="512 512 768 512 554.63 469.37 512 512" fill="#fa8646"/>
      <polygon points="512 512 512 768 554.63 554.63 512 512" fill="#fa8646"/>
      <polygon points="512 512 256 512 469.37 554.63 512 512" fill="#fa8646"/>
    </g>
  </g>
</svg>