<?xml version="1.0" encoding="UTF-8"?>
<svg id="_레이어_18" data-name="레이어 18" xmlns="http://www.w3.org/2000/svg" viewBox="0 0 1024 1024">
  <path d="M203.25,860.12c-21.02-22.97-72.02-58.52-42.05-87.71,0,0,327.41-305.9,327.41-305.9,20.58-18.37,44.97-.37,62.21,20.04,13.82,13.91,15.78,34.73,4.43,47.04l-303.88,329.59c-11.87,12.88-33.67,11.49-48.12-3.06Z" fill="#faa646"/>
  <path d="M723.83,387.61l-90.04-90.63c13.94-11.35,37.39-50.44,58.19-29.13,0,0,63.14,63.56,63.14,63.56,19.32,18.87-22.06,43.34-31.3,56.2Z" fill="#faa646"/>
  <path d="M641.22,633.43l-251.78-253.46c-13.46-13.55-13.46-35.53,0-49.08l122.75-123.56c13.46-13.55,35.29-13.55,48.76,0l251.78,253.46c13.46,13.55,13.46,35.53,0,49.08l-122.75,123.56c-13.46,13.55-35.29,13.55-48.76,0Z" fill="#fada99"/>
  <path d="M635.52,664.17c12.93,11.79,32.91,42.41,52.28,22.85,0,0,178.08-179.26,178.08-179.26,8.17-8.22,8.17-21.56,0-29.78-12.93-11.79-32.91-42.41-52.28-22.85,0,0-178.08,179.26-178.08,179.26-8.17,8.22-8.17,21.56,0,29.78Z" fill="#faa646"/>
  <path d="M340.72,367.42c12.93,11.79,32.91,42.41,52.28,22.85,0,0,178.08-179.26,178.08-179.26,8.17-8.22,8.17-21.56,0-29.78-12.93-11.79-32.91-42.41-52.28-22.85,0,0-178.08,179.26-178.08,179.26-8.17,8.22-8.17,21.56,0,29.78Z" fill="#faa646"/>
</svg>