<?xml version="1.0" encoding="UTF-8"?>
<svg id="_資" data-name="資" xmlns="http://www.w3.org/2000/svg" viewBox="0 0 1024 1024">
  <ellipse cx="512" cy="512.12" rx="305" ry="304.88" fill="#9697f1"/>
  <path d="M678.6,283c9.51-5.34,13.08-17.99,4.1-24.17-143.95-99.11-345.75-49.21-429.23,91.09-15.13,25.42,54.94,22.92,34.24,52.45-5.24,8.25-32.23,28.29-26.3,40.31,0,0,6.78,20.17,6.78,20.17,2.48,7.38,10.38,11.51,17.92,9.36,0,0,111.56-31.85,111.56-31.85,4.21-.77,277.09-155.85,280.94-157.36Z" fill="#fada99"/>
  <path d="M629.64,263.42s-75.04,49.29-75.04,49.29c-7.9,4.43-.57,16.35.87,22.35,1.81,5.44-2.24,11.06-7.97,11.06-28.15.65-23.21.89-46.66-13.52-13.55-8.16-24.68,29.04-36.05,30.1-3.69,1.02-31.2,1.91-33.4,5.57,0,0-45.49,44.17-45.49,44.17-2.78,2.7-3.35,6.95-1.39,10.29,3.33,4,6.77,15.72,12.97,16.11,0,0,23.58,3.93,23.58,3.93,5.16.86,8.29,6.17,6.54,11.1,0,0-8.02,22.59-8.02,22.59-1.35,3.79.19,8.01,3.66,10.05,6.09,3.58,5.31,12.63-1.31,15.11-13.41,4.09-14.02,6.37-13.38,20.12,0,2.98,1.58,5.73,4.14,7.24,3.19.93,15.75,10.67,19.08,10.11,0,0,39.74,1.99,39.74,1.99,11.57.16,7.2,18,7.99,24.94-.54,2.51,6.71,17.58,7.24,20.09,4.06,11.97-11.5,12.1-19.11,12.87-4.49.54-7.75,4.54-7.37,9.05l8.93,106.01c-.36,6.9,14.3,11.91,18.13,15.61,2.14,1.38,4.78,1.72,7.2.92,3.93-3.7,114.36-31.85,110.04-41.44,0,0,7.2-66.1,7.2-66.1.14-1.24,0-2.49-.42-3.67,0,0-30.44-87.4-30.44-87.4-.39-1.11-1-2.13-1.81-2.99l-52.9-56.32c-6.17-4.71,4.52-29.25,4.79-35.06,1.69-10.68,95.24-57.91,92.18-70.51,0,0-3.73-26.99-3.73-26.99-2.75-6.1,33.27-38.99,35.88-43.63,8.48-7.94-11.36-24.39-14.27-30.97-2.64-3.61-7.66-4.52-11.4-2.06Z" fill="#85c27c"/>
</svg>