<?xml version="1.0" encoding="UTF-8"?>
<svg id="_개혁신당" data-name="개혁신당" xmlns="http://www.w3.org/2000/svg" viewBox="0 0 1024 1024">
  <rect width="1024" height="1024" fill="#ec6c00"/>
  <g>
    <path d="M675.93,380.75c-180.28-182.8-147.88-182.3-327.86,0-59.06,61.09,30.31,150.56,91.46,91.45,0,0,72.47-72.47,72.47-72.47l72.47,72.47c61.14,59.09,150.55-30.35,91.46-91.46Z" fill="#fff"/>
    <g>
      <g>
        <rect x="620.61" y="560.38" width="34.78" height="55.06" fill="#fff"/>
        <path d="M571,622.21h-34.78v61.08h119.18v-31.2h-84.39v-29.88Z" fill="#fff"/>
        <polygon points="805.58 590.09 805.58 560.38 770.98 560.38 770.98 652.1 805.58 652.1 805.58 622.38 828.58 622.38 828.58 590.09 805.58 590.09" fill="#fff"/>
        <path d="M763.42,591.39v-31.01h-92.85v91.72h92.85v-31.01c-.15,0-58.31.01-58.45,0v-29.69h58.45Z" fill="#fff"/>
        <path d="M767.2,657.48c-56.86.97-56.85,85.55,0,86.52,56.86-.97,56.85-85.55,0-86.52ZM767.2,713.48c-16.66-.07-16.66-25.41,0-25.48,16.66.07,16.66,25.41,0,25.48Z" fill="#fff"/>
        <polygon points="553.61 532.85 494.1 592.36 517.18 615.44 553.61 579 590.05 615.44 613.12 592.36 553.61 532.85" fill="#fff"/>
      </g>
      <g>
        <polygon points="408.34 750.51 481.21 750.51 481.21 780.4 515.99 780.4 515.99 719.31 408.34 719.31 408.34 750.51" fill="#fff"/>
        <polygon points="323.71 650.77 316.14 650.77 316.14 622.21 281.65 622.21 281.65 713.93 316.14 713.93 316.14 685.37 323.71 685.37 323.71 713.93 358.2 713.93 358.2 622.21 323.71 622.21 323.71 650.77" fill="#fff"/>
        <polygon points="481.39 622.21 481.39 636.58 470.46 636.58 470.46 664.08 481.39 664.08 481.39 672.07 470.46 672.07 470.46 699.56 481.39 699.56 481.39 713.93 515.99 713.93 515.99 622.21 481.39 622.21" fill="#fff"/>
        <path d="M195.42,622.21v31.01c.16,0,44.11-.01,44.25,0v60.7h34.41v-91.72h-78.66Z" fill="#fff"/>
        <path d="M460.93,672.22c0-8.94-2.81-17.21-7.59-24h11.74v-26.01s-28.56,0-28.56,0v-11.57s-34.59,0-34.59,0v11.57s-28.56,0-28.56,0v26.01s11.74,0,11.74,0c-37.14,63.14,69.8,97.11,75.83,24ZM406.94,672.22c.07-16.07,24.5-16.07,24.57,0-.07,16.07-24.5,16.07-24.57,0Z" fill="#fff"/>
      </g>
      <g>
        <path d="M218.13,566.29h-21.91v-4.97h7.73v-3.56h6.45v3.56h7.73v4.97ZM216.41,574.46c.54,9.53-19.12,9.46-18.58,0-.52-9.57,19.1-9.64,18.58,0ZM226.98,594.28h-25.63v-10.93h6.45v5.81h19.18v5.13ZM204.11,574.46c-.28,3.29,6.48,3.2,6.21,0,.25-3.27-6.48-3.36-6.21,0ZM225.9,568.65h4.61v5.21h-4.61v11.57h-6.45v-27.59h6.45v10.81Z" fill="#fff"/>
        <path d="M285.77,562.36c0,2.68,0,5.71-.64,9.41h4.37v5.09h-13.74v4.33h9.89v13.62h-6.41v-8.65h-20.27v-4.97h10.29v-4.33h-13.62v-5.09h22.99c.52-2.88.64-5.23.72-7.41h-19.66v-5.09h26.07v3.08Z" fill="#fff"/>
        <path d="M337.33,581.43l.48,4.61c-8.01,1.6-16.62,1.68-22.95,1.68l-.72-5.13c6.45,0,15.46-.12,23.19-1.16ZM336.37,569.45c.4,12.22-21.23,12.24-20.91,0-.31-12.22,21.3-12.2,20.91,0ZM321.87,569.45c-.21,5.17,8.47,5.04,8.25,0,.21-5.01-8.44-5.15-8.25,0ZM345.58,594.92h-6.37v-37.17h6.37v37.17Z" fill="#fff"/>
        <path d="M395.62,582.87l.4,4.65c-8.17,1.6-16.38,1.52-22.91,1.52l-.8-5.29c6.73.08,15.5.16,23.31-.88ZM395.38,566.93h-22.35v-4.97h7.89v-3.76h6.53v3.76h7.93v4.97ZM393.58,575.1c.52,9.29-19.2,9.31-18.62,0-.59-9.38,19.16-9.36,18.62,0ZM381.04,575.1c-.36,3,6.65,3.04,6.37,0,.28-3.09-6.72-3.04-6.37,0ZM403.75,594.8h-6.37v-37.05h6.37v37.05Z" fill="#fff"/>
        <path d="M449.46,577.34h-18.18v-16.94h18.18v16.94ZM460.48,587.31c1.03,10.18-26.72,9.96-25.59,0-1.13-9.86,26.61-10.08,25.59,0ZM437.65,572.17h5.45v-6.77h-5.45v6.77ZM441.29,587.31c-1.01,3.41,13.79,3.56,12.82,0,.95-3.47-13.8-3.33-12.82,0ZM460.12,565.57h4.61v5.17h-4.61v8.25h-6.45v-21.23h6.45v7.81Z" fill="#fff"/>
      </g>
    </g>
  </g>
</svg>