<?xml version="1.0" encoding="UTF-8"?>
<svg id="_레이어_2" data-name="레이어 2" xmlns="http://www.w3.org/2000/svg" viewBox="0 0 600.38 287.42">
  <g id="_레이어_1-2" data-name="레이어 1">
    <g>
      <g>
        <path d="M11.62,273.15c-5.86,0-10.62-4.77-10.62-10.62V18.26c0-5.86,4.77-10.62,10.62-10.62,3.22-.05,6.23-.11,9.03-.16,5.18-.1,9.65-.19,13.52-.19,11.07,0,17.72.69,21.19,4.32,3.96,4.15,3.61,11.77,2.97,25.61-.49,10.65-1.16,25.24-.25,45.05,0,2.35.9,4.51,2.53,6.14,1.63,1.63,3.79,2.53,6.1,2.53h35.51c4.76,0,8.62-3.87,8.62-8.62V18.26c0-5.86,4.77-10.62,10.62-10.62h35.84c5.86,0,10.62,4.77,10.62,10.62v244.26c0,5.86-4.77,10.62-10.62,10.62H11.62ZM66.72,144.05c-4.76,0-8.62,3.87-8.62,8.62v58.41c0,4.76,3.87,8.62,8.62,8.62h35.51c4.76,0,8.62-3.87,8.62-8.62v-58.41c0-4.76-3.87-8.62-8.62-8.62h-35.51Z" fill="#96b5f2"/>
        <path d="M34.17,8.29c34.8,0,19.84,6.98,22.92,74.02,0,5.31,4.31,9.62,9.62,9.62h35.51c5.32,0,9.62-4.31,9.62-9.62V18.26c0-5.32,4.31-9.62,9.62-9.62h35.84c5.32,0,9.62,4.31,9.62,9.62v244.26c0,5.32-4.31,9.62-9.62,9.62H11.62c-5.32,0-9.62-4.31-9.62-9.62V18.26c0-5.32,4.31-9.62,9.62-9.62,9.2-.14,16.6-.35,22.55-.35M66.72,220.71h35.51c5.32,0,9.62-4.31,9.62-9.62v-58.41c0-5.32-4.31-9.62-9.62-9.62h-35.51c-5.32,0-9.62,4.31-9.62,9.62v58.41c0,5.32,4.31,9.62,9.62,9.62M34.17,6.29c-3.88,0-8.35.09-13.54.19-2.8.05-5.81.11-9.04.16-6.38,0-11.59,5.21-11.59,11.62v244.26c0,6.41,5.21,11.62,11.62,11.62h145.7c6.41,0,11.62-5.21,11.62-11.62V18.26c0-6.41-5.21-11.62-11.62-11.62h-35.84c-6.41,0-11.62,5.21-11.62,11.62v64.05c0,4.2-3.42,7.62-7.62,7.62h-35.51c-2.04,0-3.95-.79-5.39-2.23-1.44-1.44-2.23-3.35-2.23-5.39v-.09c-.91-19.76-.24-34.32.25-44.96.65-14.11,1.01-21.89-3.25-26.34-3.74-3.92-10.31-4.63-21.92-4.63h0ZM66.72,218.71c-4.2,0-7.62-3.42-7.62-7.62v-58.41c0-4.2,3.42-7.62,7.62-7.62h35.51c4.2,0,7.62,3.42,7.62,7.62v58.41c0,4.2-3.42,7.62-7.62,7.62h-35.51Z" fill="#96b5f2"/>
      </g>
      <g>
        <path d="M212.08,286.42c-5.86,0-10.62-4.77-10.62-10.62V11.62c0-5.86,4.77-10.62,10.62-10.62h36.84c5.86,0,10.62,4.77,10.62,10.62v84.3c0,4.76,3.87,8.62,8.62,8.62.4.01.79.02,1.19.02,1.03,0,2.15-.03,3.32-.07,1.32-.04,2.71-.08,4.11-.08,4.53,0,10.15.41,13.34,3.62,1.74,1.74,2.61,4.14,2.6,7.14h-.03c.03.35.03.83.03,1.51v33.67c0,5.86-4.77,10.62-10.62,10.62-.33.01-.7.02-1.09.02h0c-1.05,0-2.21-.04-3.42-.07-1.31-.04-2.69-.08-4.08-.08-3.06,0-6.95.18-9.8,1.55-2.81,1.35-4.17,3.71-4.17,7.21,0,.32,0,105.14,0,106.2,0,5.86-4.77,10.62-10.62,10.62h-36.84Z" fill="#96b5f2"/>
        <path d="M248.92,2c5.32,0,9.62,4.31,9.62,9.62v84.3c0,5.32,4.31,9.62,9.62,9.62.38.01.78.02,1.19.02,2.18,0,4.78-.15,7.43-.15,7.31,0,14.97,1.14,14.95,9.76h0s0,35.18,0,35.18c0,5.32-4.31,9.62-9.62,9.62-.35.01-.72.02-1.1.02-2.2,0-4.83-.15-7.5-.15-7.32,0-14.97,1.15-14.97,9.76,0,0,0,106.2,0,106.2,0,5.32-4.31,9.62-9.62,9.62h-36.84c-5.32,0-9.62-4.31-9.62-9.62V11.62c0-5.32,4.31-9.62,9.62-9.62h36.84M248.92,0h-36.84c-6.41,0-11.62,5.21-11.62,11.62v264.18c0,6.41,5.21,11.62,11.62,11.62h36.84c6.41,0,11.62-5.21,11.62-11.62,0-.99,0-92.19,0-104.77h0s0-1.43,0-1.43c0-3.12,1.14-5.12,3.6-6.31,2.7-1.3,6.64-1.45,9.36-1.45,1.37,0,2.73.04,4.05.08,1.22.04,2.37.07,3.45.07.39,0,.77,0,1.13-.02,6.4-.02,11.59-5.23,11.59-11.62v-17.59s0-12.09,0-12.09v-3.99s0-1.12,0-1.12c0-.14,0-.27-.02-.39h.02c.01-3.27-.96-5.91-2.89-7.85-3.46-3.47-9.33-3.91-14.05-3.91-1.42,0-2.8.04-4.14.08-1.18.04-2.29.07-3.29.07-.39,0-.76,0-1.12-.02h-.03s-.03,0-.03,0c-4.2,0-7.62-3.42-7.62-7.62V11.62c0-6.41-5.21-11.62-11.62-11.62h0Z" fill="#96b5f2"/>
      </g>
      <g>
        <path d="M321.26,286.42c-5.86,0-10.62-4.93-10.62-10.98v-33.05c0-6.06,4.77-10.98,10.62-10.98h95.58c4.75,0,8.62-4.03,8.62-8.98v-13.08c0-4.95-3.87-8.98-8.62-8.98h-79.65c-5.86,0-10.62-4.93-10.62-10.98v-99.84c0-6.06,4.77-10.98,10.62-10.98h180.54c4.75,0,8.62-4.03,8.62-8.98s-3.87-8.98-8.62-8.98h-181.21c-5.86,0-10.62-4.93-10.62-10.98v-30.98c0-6.06,4.77-10.98,10.62-10.98h236.63c5.86,0,10.62,4.93,10.62,10.98v99.49c0,6.06-4.77,10.98-10.62,10.98h-180.54c-4.75,0-8.62,4.03-8.62,8.98v.34c0,4.95,3.87,8.98,8.62,8.98h183.86c5.86,0,10.62,4.93,10.62,10.98v30.98c0,6.06-4.77,10.98-10.62,10.98h-83.3c-4.76,0-8.62,4.03-8.62,8.98v13.08c0,4.95,3.87,8.98,8.62,8.98h95.58c5.86,0,10.62,4.93,10.62,10.98v33.05c0,6.06-4.77,10.98-10.62,10.98h-267.5Z" fill="#96b5f2"/>
        <path d="M573.16,8.64c5.32,0,9.62,4.47,9.62,9.98v99.49c0,5.51-4.31,9.98-9.62,9.98h-180.54c-5.32,0-9.62,4.47-9.62,9.98v.34c0,5.51,4.31,9.98,9.62,9.98h183.86c5.32,0,9.62,4.47,9.62,9.98v30.98c0,5.51-4.31,9.98-9.62,9.98h-83.3c-5.32,0-9.62,4.47-9.62,9.98v13.08c0,5.51,4.31,9.98,9.62,9.98h95.58c5.32,0,9.62,4.47,9.62,9.98v33.05c0,5.51-4.31,9.98-9.62,9.98h-267.5c-5.32,0-9.62-4.47-9.62-9.98v-33.05c0-5.51,4.31-9.98,9.62-9.98h95.58c5.32,0,9.62-4.47,9.62-9.98v-13.08c0-5.51-4.31-9.98-9.62-9.98h-79.65c-5.32,0-9.62-4.47-9.62-9.98v-99.84c0-5.51,4.31-9.98,9.62-9.98h180.54c5.32,0,9.62-4.47,9.62-9.98s-4.31-9.98-9.62-9.98h-181.21c-5.32,0-9.62-4.47-9.62-9.98v-30.98c0-5.51,4.31-9.98,9.62-9.98h236.63M573.16,6.64h-236.63c-6.41,0-11.62,5.38-11.62,11.98v30.98c0,6.61,5.21,11.98,11.62,11.98h181.21c4.2,0,7.62,3.58,7.62,7.98s-3.42,7.98-7.62,7.98h-180.54c-6.41,0-11.62,5.38-11.62,11.98v99.84c0,6.61,5.21,11.98,11.62,11.98h79.65c4.2,0,7.62,3.58,7.62,7.98v13.08c0,4.4-3.42,7.98-7.62,7.98h-95.58c-6.41,0-11.62,5.38-11.62,11.98v33.05c0,6.61,5.21,11.98,11.62,11.98h267.5c6.41,0,11.62-5.38,11.62-11.98v-33.05c0-6.61-5.21-11.98-11.62-11.98h-95.58c-4.2,0-7.62-3.58-7.62-7.98v-13.08c0-4.4,3.42-7.98,7.62-7.98h83.3c6.41,0,11.62-5.38,11.62-11.98v-30.98c0-6.61-5.21-11.98-11.62-11.98h-183.86c-4.2,0-7.62-3.58-7.62-7.98v-.34c0-4.4,3.42-7.98,7.62-7.98h180.54c6.41,0,11.62-5.38,11.62-11.98V18.62c0-6.61-5.21-11.98-11.62-11.98h0Z" fill="#96b5f2"/>
      </g>
    </g>
  </g>
</svg>