<?xml version="1.0" encoding="UTF-8"?>
<svg id="_레이어_22" data-name="레이어 22" xmlns="http://www.w3.org/2000/svg" viewBox="0 0 1024 1024">
  <rect width="1024" height="1024" fill="#003b94"/>
  <g>
    <g>
      <path d="M293.98,354.76c4.56,2.74,3.69,3.6,1.36,7.75-2.54,5.42-3.03,11.39-4.23,17.11.28,4.28-.36,9.82-.23,13.87.13,1.26-.93,7.34.64,7.04,2.91-2.12,5.95-4.06,8.99-6.1,1.34-.96,2.8-3.27,4.31-4.21.5-8.57-4.47-9.77,3.22-19.03,2.05-1.48,4.13-2.98,5.26-5.29.1-.03.31-.09.53-.15.03-.88,1.3-.79,1.69-1.29,1.39-.55,4.04-2.58,4.53-3.56,3.61-2.94,7-6.57,10.53-9.46,3.26-3.79,4.83-9.19,6.19-13.97,1.66-3.17.84-5.73,2.28-9.24,3.14-2.28,10.52-2.65,11.29,2.36.01,1.16.17,2.36-.15,3.31,0,.51.68.94.16,1.41-.71,1.52-.12,3.05-.21,4.74.09,2.52-.74,6.02.19,8.33.23,4.08.11,8.42.28,12.53-.1,3.11.29.27-.3,7.2-.46,1.91-.84,8.78-1.67,10.78-.21.39-.42,3.11-.32,3.72-.25,3.62-1.17,7.22-1.07,10.75-.47,3.47-.83,7.63.01,11.15-.21,2.63.24,5.27.13,7.56-.13,3.25,1.97,5.34-.65,6.95-.4.38-1.77.7-2.14.67-.97,1.07-2.25,1.28-3.68,1.07-2.1,1.49-2.96.18-3.44-1.95-1.78-8.54-2.58-17.86-1.61-26.13.21-8.47,1.5-17.54,2.58-25.94-.11-5.88,0-4.19-.08-8.38-2.37,1.67-4.22,4.51-6.73,6.17-1.96,1.09-3.89,3.25-5.6,4.49-4.01,1.66-7.98,4.57-11.46,7.13-2.1,1.03-3.9,3.93-5.96,5.29-.42.27-1.7.71-1.73,1.24-.45,1.26.86,2.32,1.58,3.07-.04.47.15.79.46,1.12,2.38-.22,4.73.59,6.7,1.9,1.81.79,5.69,3.26,2.37,5.05.16.74-2.15,2.07-2.75,2.83-.4.96-2.42,2.32-2.96,2.98-.22.35-1.28,1.76-1.9,2.13-.18.45-1.78,1.19-2.1,1.57-.51.62-1,1.29-1.82,1.55-.09.03-1.93,1.21-2.44,2.14-1.82,1.1-4.13,2.05-5.82,3.26-2.66,1.64-4.89,4.52-8.06,5.16-1.87.38-3.56.84-5.64,1.13-.73.17-1.64.68-2.24-.01-2.81-2.65-4.35-6.77-4.47-10.46.79-6.43.69-12.82,1.42-19.29,1.04-8.49,2.61-17.51,6.61-25.09-.2-1.87,5.18-6.23.85-5.02-5.87,1.07-10.36,3.97-16.03,5.56-5.19,1.44-9.64-.88-11.09-6.12,2.89-.4,6.91-2.21,9.68-3.72,10.47-5.89,22.5-10.28,34.44-10.82,4.23.94,7.45,5.71,4.16,9.3-1.77,1.05-5.12,1.05-6.73,2.2-.66.5-1.84.16-2.69.45-.55.26-4.58,1.1-4.45,1.2Z" fill="#fff"/>
      <path d="M400,422.24c-3.25.56-7.27,2.78-10.55.5-2.59-3.42-.8-7.06,2.23-9.37,3.89-1.92,7.33-6.56,9.61-9.81.76-2.18,6.23-7.13,4.58-8.82-4.44,2.18-12.23,5.92-16.47,7.98-.76.44-3.96,2.17-4.59,2.76-.55.52-.42.74-1.23.79-1.7.5-2.82.18-4.11-1.05-1.02-.53-1.73-1.3-2.16-2.36-.88-1.83-.66-4.03-1.06-5.76.94-2.16,2.3-4.3,5.03-4.91,4.84-.72,9.43-3.46,14.03-4.97,1.43-.38.36-4.15.9-5.54,0-.09.13-1.66-.03-2.29-.19-.62.8-2.26-.32-2.25-1.22.12-2.25.88-3.4,1.2-1.02.06.31-.08-.57.35-.49.24-1.02.38-1.53.56-3.34.69-6.41,2.17-9.7,3.15-1.53.2-7.79,3.93-9.25,3.68-1.48-.06-3.14.83-4.64.54-.26-.17-.64-.17-.97-.22-.45-.07-.64-.91-1.08-1.02-1.93-1.54-3.63-3.86-4.52-6.08-2.13-5.3,17.49-8.1,21.42-9.87,3.73-1.19,8.05-2.33,11.43-3.2,2.23-.63,4.48-2.07,6.8-2.5.72-.52,2.2-.8,3.51-1.2,1.42-.7,4.41-1.73,5.89-2.36,2.64-2,5.97-2.71,9.23-4.05,5.2-1.27,10.73-4.55,16.2-2.56,2.57.53,5.28,8.44,4.31,9.46-.99.22-2.91.76-3.96.83-2.2.03-8.77,2.09-10.8,2.93-1.52,1.13-3.25,1.95-5.04,2.6-3.38,1.62-7.71,2.52-10.07,5.66-1.3,2.91-3.19,5.46-3.8,8.57,6.44-2.52,21.14-8.46,20.28,3.6-.43,1.24-.75,2.65-1.57,3.74-.55.48-2.24,1.2-2.45,1.95-3.46,3.07-7.81,8.72-11.13,11.82-5.44,6.23-2.5,2.94,2.18,1.9,2.73-1.07,6.46-3.47,9.41-2.15,2.5,2.07-.05,7.92-.94,8.54-2.04,2.4-4.59,4.2-6.77,6.68-1.53,2.13-4.68,11.13-.47,11.44,10.14-1.43,19.93-8.38,23.42-18.19.16-.8.9-2.05,1.69-1.04,4.2,6.12-.91,14.28-5.52,18.69-3.33,3.58-8.44,4.95-13.11,6.71-5.85,2.61-15.2,3.92-19.68-1.8-2.47-3.94-.43-8.89-.65-13.25Z" fill="#fff"/>
      <path d="M507.59,357.35c-.36.49-.48,1-1.12,1.2-.46.18-.06.2-.44.55-1.97,2.84-4.64,4.26-7.12,6.72-6.68,5.57-13.71,10.9-22.43,11.11-.31,3.12.1,6.44-.35,9.6-1.9,6-3.79,12.54-8.94,16.61-1.53.6-3.2,1.81-4.88,1.15-.14-.05-1.54.26-2.07.45-8.7,2.28-10.77-9.74-11.03-16.09.49-8.54.76-15.51,4.22-22.98,1.34-5.97,8.27-8.96,13.04-5.57.56.51,2.64,2.77,2.9,3.28.24.46.72,3.07,1.67,3.4,1.52.38,2.08,2.81,3.9,2.06,2.03-.49,4.98-2.65,6.57-4.25,7.4-6.39,14.8-13.44,22.32-19.53,1.66-1.95,2.54-.2,3.1-2.39.74-1.28.91-5.41,1.85-6.42.27-.26.28-3.15,1.18-3.55,5.7-3.28,11.29-.64,13.64,5.22.4,4-1.06,11.78-2.05,15.47-.33,13.09-3.22,25.71-3.67,38.85-.09,9.34,2.34,18.49,4.85,27.42,2.71,5.8,0,1.81-.63.92-.93,2.05-.89.57-2.44.97-.99-.24-1.74-1.21-2.97-.89-.74.09-.94-.61-1.38-1.04-.51-.44-2.31.05-2.9-.6-1.99-1.93-2.28-4.95-2.91-7.51-2.95-11.14-3.27-20.17-2.94-31.08.12-5.38.32-11.34.41-16.37-.09-2.25,1.59-4.72.6-6.72ZM460.63,393.42c1.89.25,2.81-1.75,3.16-3.36,1.99-4.43,4.73-10.6,1.91-15.04-.89-.67-3.04-.87-3.01.63-1.26,5.81-3.06,11.77-2.07,17.77Z" fill="#fff"/>
      <path d="M403.82,336.7c-3.38.98-6.82,4.08-10.49,3.41-1.09-.31-2.73-.14-3.76-.62-.53-.3-.84.07-.78.59-1.24,5.57,2.91,11.71-.39,16.67-1.83,2.57-5.42.94-7.94.54-4.45-4.12-2.23-9.86-2.18-15.66-.11-3.14.27-7.64,1.09-10.46-.29-5.32-.39-10.58,1.44-15.69.49-2.01.06-5.73,1.49-7.61,2.51-1.6,6.03.03,7.91,2.08,3.28,2.9-1.32,7.95-1,11.71-.5,2.91-.3,5.88.16,8.62,4.98-2.35,9.23-5.96,13.5-9.31,1-.31,1.33-1.15,2.18-1.6,1.6-1.79.48-4.5.8-6.39.67-4.3,1.32-9.11,4.03-12.58,3.72-1.95,8.65.04,9.92,4.04-.13,3.06-2.7,6.85-2.32,9.75,3.76-.49,7.08-2.64,10.18-.25.88,1.14.46,2.99,1.35,3.93,1.03.66.6,2.67.5,3.76-.5,1.22-1.78,2.09-3.03,2.5-10.77,6.18-11.97,2.95-12.2,17.1-.58,2.57,3.43.15,4.7,3.8.93.28-.12,3.78-1.04,3.51-4.19,3.08-8.77,5.22-13.84,6.24-2.27.18-4.56,1.21-6.8.51-1.92-.97-2.55-4-.86-5.49,10.41-6.39,7.87.14,7.56-13.01-.06-.03-.12-.07-.17-.1Z" fill="#fff"/>
    </g>
    <g>
      <path d="M752.02,666.54c-45.14-1-93.97-7.76-97.88-54.52,4.73-44.97,50.18-48.91,97.88-50.09,46.8,1.2,93.37,5.4,97.75,50.08-3.85,46.61-52.99,53.53-97.75,54.52ZM751.94,598.66c-54.38-2.25-52.45,30.78,0,28.94,50.12,2.66,55.77-30.2,0-28.94Z" fill="#fff"/>
      <path d="M159.5,434.34l139.55-.14v122.1l-139.55.05v-122.01ZM209.34,516.04h43.09v-41.4h-43.09v41.4Z" fill="#fff"/>
      <polygon points="325.33 589.55 325.33 430.15 376.55 430.08 376.55 589.55 325.33 589.55" fill="#fff"/>
      <polygon points="176.86 661.38 178.6 575.35 241.58 575.35 239.68 617.35 377.32 614.82 377.32 661.38 176.86 661.38" fill="#fff"/>
      <path d="M667.7,549.3c-10.01,0-17.78-.11-21.02-.17v-114.88l125.51-.08v40.47h-72.43v31.36c17.53.95,57.06-.76,73.17-7.81l10.85,37.79c-21.01,11.72-85.63,13.91-116.07,13.32Z" fill="#fff"/>
      <polygon points="797.2 552.66 797.2 430.09 845.88 430.09 845.88 482.02 881.18 479.98 880.64 527 845.88 525.4 845.88 552.66 797.2 552.66" fill="#fff"/>
      <polygon points="482.01 662.35 484.97 609.08 404.07 609.03 404.07 564.82 621.74 564.52 621.74 609.16 540.09 609.11 542.95 662.35 482.01 662.35" fill="#fff"/>
      <path d="M606.04,551.45c-24.99.58-81.73-6.36-93.66-36.26-11.61,29.38-67.72,36.89-92.26,36.26l-12.67-42.38c22.6-.3,71.24-9.85,72.6-34.16l-67.04.11v-40.78l199.81-.02v40.82l-68.07-.25c1.02,23.24,46.24,34.76,73.46,34.37l-12.16,42.28Z" fill="#fff"/>
    </g>
  </g>
</svg>