<?xml version="1.0" encoding="UTF-8"?>
<svg id="_레이어_23" data-name="레이어 23" xmlns="http://www.w3.org/2000/svg" viewBox="0 0 1024 1024">
  <rect width="1024" height="1024" fill="#e61e2b"/>
  <g>
    <g>
      <polygon points="524.7 748.83 526.5 786.23 643.42 781.36 641.93 745.53 524.7 748.83" fill="#fff"/>
      <path d="M582.04,658.96c25.09-.73,24.45,37.71,0,37.05-24.61.67-24.91-37.76,0-37.05M582.04,732.43c72.51,1.93,74.39-112.06,0-109.89-73.86-2.09-72.97,111.86,0,109.89" fill="#fff"/>
      <path d="M391.4,738.65h-39.03v61.88h154.25v-34.66l-115.22.91v-28.14Z" fill="#fff"/>
      <path d="M378.66,695.07v-33.44h30.66v30.11c-8.83,2.14-20.04,3.04-30.66,3.33M409.32,727.26h36.12v-100.28h-103.1v100.64s35.04-.4,66.97-5.36v4.99Z" fill="#fff"/>
      <rect x="462.49" y="619.99" width="39.03" height="131.52" fill="#fff"/>
      <rect x="649.01" y="619.99" width="39.03" height="180.55" fill="#fff"/>
      <path d="M826.03,657.42v-27.57h-37.52v-12.75h-39.03v12.75h-37.52v27.57c4.86-2.04,109.78-1.84,114.06,0" fill="#fff"/>
      <path d="M832.11,771.98h-71.08v-7.8h71.08v7.8ZM722,735.93v67.24h39.03v-2.61h71.08v2.61h39.03v-67.24h-149.14Z" fill="#fff"/>
      <path d="M768.56,684.08c23.02-.35,23.02,19.15,0,18.8-23,.35-23.01-19.15,0-18.8M769,728.62c71.33,1.48,73.32-71.89,0-70.29-72.77-1.56-71.81,71.79,0,70.29" fill="#fff"/>
      <rect x="832.11" y="619.99" width="39.03" height="110.13" fill="#fff"/>
      <polygon points="152.86 726.18 217.34 726.18 217.34 738.65 166.83 738.65 166.83 773.48 269.57 771.54 269.57 800.63 308.6 800.63 308.6 738.65 256.37 738.65 256.37 726.18 322.91 726.18 322.91 692.53 152.86 692.53 152.86 726.18" fill="#fff"/>
      <path d="M265.29,687.34l37.38-.15c8.49-33.54,8.98-62.49,8.98-62.49h-144.14v34.53l104.54-1.17c-1.29,10.28-3.38,21.06-6.76,29.28" fill="#fff"/>
    </g>
    <polygon points="466.64 220.84 366.35 321.23 366.35 522.04 567.27 522.04 667.55 421.63 667.55 220.84 466.64 220.84" fill="#fff"/>
  </g>
</svg>