<?xml version="1.0" encoding="UTF-8"?>
<svg id="_레이어_26" data-name="레이어 26" xmlns="http://www.w3.org/2000/svg" viewBox="0 0 1024 1024">
  <rect width="1024" height="1024" fill="#f58400"/>
  <g>
    <polygon points="90.09 497.31 162.05 425.35 234.01 497.31 216.02 515.3 162.05 461.33 108.08 515.3 90.09 497.31" fill="#fff"/>
    <polygon points="238.5 405.05 310.59 405.05 310.59 430.49 263.94 430.49 263.94 595.86 238.5 595.86 238.5 405.05" fill="#fff"/>
    <polygon points="319.07 405.05 319.07 438.97 272.42 438.97 272.42 464.41 391.15 464.41 391.15 438.97 344.51 438.97 344.51 405.05 319.07 405.05" fill="#fff"/>
    <path d="M399.63,438.97v131.45h-55.13v-23.38c14.82-5.24,25.44-19.37,25.44-35.98,0-21.08-17.08-38.16-38.16-38.16s-38.16,17.09-38.16,38.16c0,16.62,10.62,30.74,25.44,35.98v23.38h-46.64v25.44h152.65v-156.89h-25.44ZM331.79,523.78c-7.03,0-12.72-5.7-12.72-12.72s5.69-12.72,12.72-12.72,12.72,5.7,12.72,12.72-5.7,12.72-12.72,12.72Z" fill="#fff"/>
    <path d="M433.55,438.97v101.77h106.48v-101.77h-106.48ZM514.59,515.3h-55.6v-50.88h55.6v50.88Z" fill="#fff"/>
    <polygon points="434.97 549.22 434.97 595.86 573.96 595.86 573.96 570.42 460.41 570.42 460.41 549.22 434.97 549.22" fill="#fff"/>
    <rect x="548.51" y="438.97" width="25.44" height="122.97" fill="#fff"/>
    <polygon points="582.44 544.98 582.44 570.42 646.04 570.42 646.04 595.86 671.48 595.86 671.48 570.42 735.09 570.42 735.09 544.98 582.44 544.98" fill="#fff"/>
    <polygon points="743.57 438.97 743.57 536.5 849.58 536.5 849.58 511.06 769.01 511.06 769.01 464.41 849.58 464.41 849.58 438.97 743.57 438.97" fill="#fff"/>
    <path d="M895.75,542.63c-21.08,0-38.16,17.08-38.16,38.16s17.08,38.16,38.16,38.16,38.16-17.08,38.16-38.16-17.08-38.16-38.16-38.16ZM895.75,593.51c-7.03,0-12.72-5.69-12.72-12.72s5.7-12.72,12.72-12.72,12.72,5.69,12.72,12.72-5.7,12.72-12.72,12.72Z" fill="#fff"/>
    <polygon points="735.09 438.97 582.44 438.97 582.44 464.41 642.66 464.41 586.68 520.4 604.67 538.38 658.64 484.41 712.61 538.38 730.6 520.4 674.62 464.41 735.09 464.41 735.09 438.97" fill="#fff"/>
    <polygon points="858.53 405.05 930.62 405.05 930.62 430.49 883.97 430.49 883.97 537.92 858.53 537.92 858.53 405.05" fill="#fff"/>
  </g>
</svg>