<?xml version="1.0" encoding="UTF-8"?>
<svg id="_무소속" data-name="무소속" xmlns="http://www.w3.org/2000/svg" viewBox="0 0 1024 1024">
  <rect width="1024" height="1024" fill="#666"/>
  <g>
    <path d="M400.98,548.12h-72.27v43.89h-36.45v-43.89h-72.27v-35.66h180.99v35.66ZM390.5,496.22h-160.04v-101.73h160.04v101.73ZM355.52,429.93h-90.08v31.09h90.08v-31.09Z" fill="#fff"/>
    <path d="M530.02,544.46h72.48v36.12h-180.99v-36.12h72.48v-43.21h36.03v43.21ZM472.83,500.8c-14.94,8.54-30.87,12.8-47.76,12.8v-36.58c43.28-.61,70.67-44.55,75.2-85.5l36.03,6.17c-1.68,13.41-4.82,25.83-9.43,37.26l75.62,48.01-18.22,31.55-73.32-49.15c-10.47,15.09-23.18,26.9-38.13,35.44Z" fill="#fff"/>
    <path d="M804.02,483.19v30.86h-180.99v-30.86h72.9v-22.86h35.19v22.86h72.9ZM712.68,439.99c-21.71,21.17-53.28,32.49-84.42,32.92v-32.23c32.38-1.04,68.1-19.72,73.53-53.95l35.82,6.4c-1.26,7.32-3.49,14.4-6.7,21.26l71.43,29.95-12.78,29.49-76.88-33.83ZM632.66,524.12h160.88v65.61h-35.82v-34.98h-125.06v-30.63Z" fill="#fff"/>
  </g>
</svg>