<?xml version="1.0" encoding="UTF-8"?>
<svg id="_통합진보당" data-name="통합진보당" xmlns="http://www.w3.org/2000/svg" viewBox="0 0 1024 1024">
  <rect width="1024" height="1024" fill="#d9081f"/>
  <g>
    <polygon points="298.87 887.45 213.96 887.45 213.96 845.78 153.35 845.78 153.35 939.57 359.48 939.57 359.48 674.48 298.87 674.48 298.87 887.45" fill="#fff"/>
    <path d="M542.85,836.97h84.56v-162.49h-60.6v30.07h-108.52v-30.07h-60.6v162.49h84.56v50.48h-86.96v52.12h234.52v-52.12h-86.96v-50.48ZM458.28,754.93h108.52v28.4h-108.52v-28.4Z" fill="#fff"/>
    <path d="M836.48,674.48v107.39h-111.91v-55.27h82.45v-52.12h-143.06v162.49h62.48c-39.37,129.54,164.85,164.3,170.63,28.96h0v-139.33h37.93v-52.12h-98.53ZM809.28,893.13c-35.29.49-35.29-54.9,0-54.4,35.28-.49,35.28,54.9,0,54.4Z" fill="#fff"/>
    <polygon points="229.96 838.09 277.43 808.26 225.53 726.6 272.59 726.6 272.59 674.48 94.37 674.48 94.37 726.6 141.43 726.6 89.53 808.26 137 839.55 183.48 770.59 229.96 838.09" fill="#fff"/>
  </g>
</svg>