<?xml version="1.0" encoding="UTF-8"?>
<svg id="_여성가족" data-name="여성가족" xmlns="http://www.w3.org/2000/svg" viewBox="0 0 1024 1024">
  <g>
    <circle cx="391.39" cy="297.11" r="69.85" fill="#fad446"/>
    <path d="M574.15,571.87h-.04c-.03-101.3-82.15-183.4-183.46-183.4s-183.43,82.11-183.46,183.4h-.04c0,48.55,30.96,89.86,74.22,105.29h-1.81c33.44,15.92,70.85,24.84,110.36,24.84s76.92-8.92,110.36-24.84h-.35c43.25-15.42,74.22-56.74,74.22-105.29Z" fill="#fad446"/>
  </g>
  <g>
    <circle cx="634.4" cy="297.11" r="69.85" fill="#96b5f2"/>
    <path d="M817.16,571.87h-.04c-.03-101.3-82.15-183.4-183.46-183.4s-183.43,82.11-183.46,183.4h-.04c0,48.55,30.96,89.86,74.22,105.29h-1.81c33.44,15.92,70.85,24.84,110.36,24.84s76.92-8.92,110.36-24.84h-.35c43.25-15.42,74.22-56.74,74.22-105.29Z" fill="#96b5f2"/>
  </g>
  <g>
    <circle cx="513.81" cy="309.32" r="85.36" fill="#fa8646"/>
    <path d="M737.18,645.12h-.04c-.04-123.8-100.41-224.15-224.22-224.15s-224.18,100.35-224.22,224.15h-.04c0,59.34,37.84,109.83,90.71,128.68h-2.21c40.87,19.46,86.6,30.36,134.87,30.36s94.01-10.9,134.87-30.36h-.43c52.86-18.85,90.71-69.34,90.71-128.68Z" fill="#fa8646"/>
  </g>
</svg>